HIERARCHY
ROOT hip
{
	OFFSET 0.000000 0.000000 0.000000
	CHANNELS 6 Xposition Yposition Zposition Xrotation Zrotation Yrotation 
	JOINT abdomen
	{
		OFFSET 0.000000 3.422050 0.000000
		CHANNELS 3 Xrotation Zrotation Yrotation 
		JOINT chest
		{
			OFFSET 0.000000 8.486693 -0.684411
			CHANNELS 3 Xrotation Zrotation Yrotation 
			JOINT neck
			{
				OFFSET 0.000000 10.266162 -0.273764
				CHANNELS 3 Xrotation Zrotation Yrotation 
				JOINT head
				{
					OFFSET 0.000000 3.148285 0.000000
					CHANNELS 3 Xrotation Zrotation Yrotation 
					End Site
					{
						OFFSET 0.000000 3.148289 0.000000
					}
				}
			}
			JOINT lCollar
			{
				OFFSET 3.422053 6.707223 -0.821293
				CHANNELS 3 Yrotation Zrotation Xrotation 
				JOINT lShldr
				{
					OFFSET 3.285171 0.000000 0.000000
					CHANNELS 3 Zrotation Yrotation Xrotation 
					JOINT lForeArm
					{
						OFFSET 10.129278 0.000000 0.000000
						CHANNELS 3 Yrotation Zrotation Xrotation 
						JOINT lHand
						{
							OFFSET 8.486692 0.000000 0.000000
							CHANNELS 3 Zrotation Yrotation Xrotation 
							End Site
							{
								OFFSET 4.106464 0.000000 0.000000
							}
						}
					}
				}
			}
			JOINT rCollar
			{
				OFFSET -3.558935 6.707223 -0.821293
				CHANNELS 3 Yrotation Zrotation Xrotation 
				JOINT rShldr
				{
					OFFSET -3.148289 0.000000 0.000000
					CHANNELS 3 Zrotation Yrotation Xrotation 
					JOINT rForeArm
					{
						OFFSET -10.266159 0.000000 0.000000
						CHANNELS 3 Yrotation Zrotation Xrotation 
						JOINT rHand
						{
							OFFSET -8.349810 0.000000 0.000000
							CHANNELS 3 Zrotation Yrotation Xrotation 
							End Site
							{
								OFFSET -4.106464 0.000000 0.000000
							}
						}
					}
				}
			}
		}
	}
	JOINT lThigh
	{
		OFFSET 5.338403 -1.642589 1.368821
		CHANNELS 3 Xrotation Zrotation Yrotation 
		JOINT lShin
		{
			OFFSET -2.053232 -20.121670 0.000000
			CHANNELS 3 Xrotation Zrotation Yrotation 
			JOINT lFoot
			{
				OFFSET 0.000000 -19.300380 -1.231939
				CHANNELS 3 Xrotation Yrotation Zrotation 
				End Site
				{
					OFFSET 0.000000 -2.463878 4.653993
				}
			}
		}
	}
	JOINT rThigh
	{
		OFFSET -5.338403 -1.642589 1.368821
		CHANNELS 3 Xrotation Zrotation Yrotation 
		JOINT rShin
		{
			OFFSET 2.053232 -20.121670 0.000000
			CHANNELS 3 Xrotation Zrotation Yrotation 
			JOINT rFoot
			{
				OFFSET 0.000000 -19.300380 -1.231939
				CHANNELS 3 Xrotation Yrotation Zrotation 
				End Site
				{
					OFFSET 0.000000 -2.463878 4.653993
				}
			}
		}
	}
}
MOTION
Frames: 20
Frame Time: 0.049897
0.000000 43.528500 0.000000 0.000000 0.000000 0.000000 0.000000 0.000000 0.000000 0.000000 0.000000 0.000000 0.000000 0.000000 0.000000 0.000000 0.000000 0.000000 0.000000 0.000000 0.000000 0.000000 0.000000 0.000000 0.000000 0.000000 0.000000 0.000000 0.000000 0.000000 0.000000 0.000000 0.000000 0.000000 0.000000 0.000000 0.000000 0.000000 0.000000 0.000000 0.000000 0.000000 0.000000 0.000000 0.000000 0.000000 0.000000 0.000000 0.000000 0.000000 0.000000 0.000000 0.000000 0.000000 0.000000 0.000000 0.000000 0.000000 0.000000 0.000000 
19.995884 6.189011 0.952190 -25.001125 0.000000 0.000000 -8.461948 0.000000 0.000000 -6.744009 -0.119987 -0.639263 17.998348 0.000000 0.000000 8.998567 0.000000 0.000000 3.533404 -13.128228 15.113749 -59.930874 -40.991356 -11.366021 -20.223557 4.586360 33.854275 -55.612236 7.726394 10.966951 -3.304545 13.222718 14.785352 59.474644 40.619198 -11.579651 20.732595 -4.772869 33.838718 56.008755 -8.229076 11.043677 -60.173412 31.236113 76.859680 48.405457 -1.105522 -0.521835 17.604826 7.016406 0.090994 -60.170662 -31.247221 -76.885292 48.397312 1.081138 0.499283 17.597584 -7.009474 -0.092517 
19.995884 6.189011 0.899291 -25.001125 0.000000 0.000000 -9.238013 0.000000 0.000000 -4.824780 -0.119908 -0.639190 17.684769 0.000000 0.000000 8.433217 0.000000 0.000000 2.752212 -13.063696 14.065884 -59.463020 -41.050949 -11.728003 -19.787632 4.545437 33.840576 -55.389679 7.239251 10.851524 -2.508839 13.168643 13.751757 59.001026 40.677155 -11.948078 20.288246 -4.727407 33.824703 55.772491 -7.722733 10.919480 -60.173412 31.236113 76.859680 48.078926 -1.144847 -0.515142 17.604826 7.016406 0.090994 -60.170662 -31.247221 -76.885292 48.072857 1.120864 0.491610 17.597584 -7.009474 -0.092517 
19.995884 6.189011 0.846391 -25.001125 0.000000 0.000000 -10.014651 0.000000 0.000000 -2.896715 -0.119830 -0.639114 17.371014 0.000000 0.000000 7.866807 0.000000 0.000000 1.971303 -12.985132 13.017600 -58.994175 -41.108303 -12.090990 -19.351645 4.504404 33.827187 -55.166309 6.752378 10.734273 -1.713167 13.100491 12.717607 58.526428 40.732800 -12.317498 19.843830 -4.681825 33.811035 55.535313 -7.216697 10.793273 -60.173428 31.236118 76.859680 47.752331 -1.184139 -0.508223 17.604826 7.016407 0.090994 -60.170673 -31.247225 -76.885292 47.748352 1.160550 0.483710 17.597586 -7.009474 -0.092517 
19.995884 6.189011 0.793492 -25.001125 0.000000 0.000000 -10.791789 0.000000 0.000000 -0.960852 -0.119755 -0.639036 17.057085 0.000000 0.000000 7.299367 0.000000 0.000000 1.191143 -12.892529 11.969361 -58.524395 -41.163429 -12.454952 -18.915598 4.463258 33.814106 -54.942078 6.265803 10.615187 -0.917992 13.018243 11.683362 58.050911 40.786125 -12.687872 19.399359 -4.636132 33.797729 55.297184 -6.711002 10.665048 -60.173412 31.236113 76.859680 47.425697 -1.223396 -0.501080 17.604828 7.016407 0.090994 -60.170662 -31.247221 -76.885292 47.423782 1.200195 0.475585 17.597586 -7.009474 -0.092517 
19.995884 6.189011 0.740592 -25.001123 0.000000 0.000000 -11.569355 0.000000 0.000000 0.981745 -0.119682 -0.638954 16.742990 0.000000 0.000000 6.730917 0.000000 0.000000 0.412196 -12.785899 10.921625 -58.053699 -41.216305 -12.819846 -18.479513 4.422009 33.801342 -54.716961 5.779559 10.494261 -0.123782 12.921913 10.649493 57.574520 40.837135 -13.059159 18.954855 -4.590329 33.784775 55.058079 -6.205687 10.534797 -60.173412 31.236115 76.859680 47.099026 -1.262615 -0.493712 17.604826 7.016406 0.090994 -60.170662 -31.247217 -76.885292 47.099182 1.239798 0.467234 17.597584 -7.009474 -0.092517 
19.995884 6.189011 0.687693 -25.001125 0.000000 0.000000 -12.347284 0.000000 0.000000 2.929991 -0.119612 -0.638869 16.428734 0.000000 0.000000 6.161487 0.000000 0.000000 -0.365078 -12.665284 9.874863 -57.582169 -41.266926 -13.185633 -18.043392 4.380660 33.788895 -54.490940 5.293677 10.371484 0.669000 12.811526 9.616461 57.097294 40.885807 -13.431310 18.510311 -4.544417 33.772182 54.817974 -5.700787 10.402513 -60.173412 31.236109 76.859673 46.772312 -1.301795 -0.486120 17.604826 7.016406 0.090994 -60.170662 -31.247217 -76.885292 46.774551 1.279356 0.458658 17.597584 -7.009473 -0.092516 
19.995884 6.189011 0.634793 -25.001125 0.000000 0.000000 -13.125501 0.000000 0.000000 4.882779 -0.119544 -0.638783 16.114325 0.000000 0.000000 5.591097 0.000000 0.000000 -1.140217 -12.530736 8.829529 -57.109806 -41.315285 -13.552269 -17.607258 4.339210 33.776760 -54.264004 4.808193 10.246856 1.459893 12.687130 8.584727 56.619278 40.932137 -13.804283 18.065754 -4.498406 33.759930 54.576851 -5.196340 10.268188 -60.173412 31.236113 76.859680 46.445564 -1.340933 -0.478303 17.604826 7.016406 0.090994 -60.170662 -31.247221 -76.885292 46.449886 1.318868 0.449858 17.597584 -7.009474 -0.092517 
19.995884 6.189011 0.581894 -25.001125 0.000000 0.000000 -13.903928 0.000000 0.000000 6.838987 -0.119480 -0.638693 15.799760 0.000000 0.000000 5.019777 0.000000 0.000000 -1.912772 -12.382328 7.786077 -56.636662 -41.361374 -13.919716 -17.171122 4.297667 33.764950 -54.036137 4.323136 10.120366 2.248443 12.548793 7.554748 56.140503 40.976101 -14.178029 17.621195 -4.452296 33.748043 54.334698 -4.692386 10.131818 -60.173412 31.236113 76.859680 46.118790 -1.380028 -0.470263 17.604828 7.016406 0.090994 -60.170662 -31.247221 -76.885292 46.125187 1.358330 0.440833 17.597584 -7.009474 -0.092516 
19.995884 6.189011 0.528994 -25.001125 0.000000 0.000000 -14.682501 0.000000 0.000000 8.797483 -0.119418 -0.638602 15.485044 0.000000 0.000000 4.447552 0.000000 0.000000 -2.682295 -12.220157 6.744951 -56.162800 -41.405178 -14.287918 -16.734989 4.256033 33.753448 -53.807304 3.838540 9.992007 3.034198 12.396593 6.526968 55.661026 41.017708 -14.552508 17.176649 -4.406094 33.736523 54.091473 -4.188958 9.993390 -60.173412 31.236113 76.859680 45.791992 -1.419077 -0.462000 17.604826 7.016407 0.090994 -60.170662 -31.247221 -76.885292 45.800461 1.397743 0.431584 17.597584 -7.009474 -0.092517 
19.995884 6.189011 0.476095 -25.001125 0.000000 0.000000 -15.461144 0.000000 0.000000 10.757121 -0.119360 -0.638508 15.170187 0.000000 0.000000 3.874449 0.000000 0.000000 -3.448348 -12.044327 5.706589 -55.688251 -41.446693 -14.656845 -16.298872 4.214311 33.742260 -53.577515 3.354439 9.861773 3.816718 12.230639 5.501833 55.180904 41.056950 -14.927675 16.732124 -4.359802 33.725361 53.847176 -3.686098 9.852900 -60.173420 31.236113 76.859680 45.465179 -1.458080 -0.453514 17.604826 7.016407 0.090994 -60.170662 -31.247221 -76.885292 45.475723 1.437102 0.422111 17.597584 -7.009474 -0.092517 
19.995884 6.189011 0.423195 -25.001125 0.000000 0.000000 -16.239794 0.000000 0.000000 12.716766 -0.119304 -0.638412 14.855190 0.000000 0.000000 3.300495 0.000000 0.000000 -4.210506 -11.854981 4.671423 -55.213055 -41.485920 -15.026445 -15.862790 4.172506 33.731396 -53.346699 2.870862 9.729655 4.595572 12.051058 4.479777 54.700169 41.093819 -15.303488 16.287636 -4.313425 33.714554 53.601753 -3.183839 9.710335 -60.173412 31.236115 76.859680 45.138359 -1.497033 -0.444805 17.604822 7.016406 0.090994 -60.170662 -31.247221 -76.885292 45.150978 1.476408 0.412415 17.597584 -7.009473 -0.092516 
19.995884 6.189011 0.370296 -25.001125 0.000000 0.000000 -17.018366 0.000000 0.000000 14.675256 -0.119253 -0.638315 14.540061 0.000000 0.000000 2.725716 0.000000 0.000000 -4.968345 -11.652257 3.639871 -54.737259 -41.522846 -15.396679 -15.426754 4.130621 33.720860 -53.114891 2.387845 9.595648 5.370331 11.857985 3.461223 54.218887 41.128319 -15.679892 15.843196 -4.266968 33.704113 53.355225 -2.682224 9.565692 -60.173409 31.236109 76.859680 44.811535 -1.535936 -0.435874 17.604826 7.016406 0.090994 -60.170647 -31.247217 -76.885292 44.826218 1.515658 0.402497 17.597584 -7.009474 -0.092517 
19.995884 6.189011 0.317397 -25.001125 0.000000 0.000000 -17.796797 0.000000 0.000000 16.631468 -0.119204 -0.638216 14.224802 0.000000 0.000000 2.150140 0.000000 0.000000 -5.721463 -11.436322 2.612338 -54.260933 -41.557476 -15.767508 -14.990767 4.088659 33.710636 -52.882046 1.905421 9.459741 6.140589 11.651578 2.446580 53.737072 41.160419 -16.056843 15.398821 -4.220434 33.694031 53.107525 -2.181286 9.418957 -60.173412 31.236113 76.859680 44.484699 -1.574786 -0.426721 17.604826 7.016406 0.090994 -60.170662 -31.247221 -76.885292 44.501469 1.554849 0.392356 17.597584 -7.009474 -0.092517 
19.995884 6.189011 0.264497 -25.001125 0.000000 0.000000 -18.575010 0.000000 0.000000 18.584253 -0.119159 -0.638116 13.909416 0.000000 0.000000 1.573793 0.000000 0.000000 -6.469462 -11.207366 1.589223 -53.784065 -41.589771 -16.138866 -14.554856 4.046626 33.700737 -52.648136 1.423621 9.321926 6.905941 11.432014 1.436252 53.254795 41.190128 -16.434290 14.954520 -4.173828 33.684322 52.858669 -1.681066 9.270125 -60.173412 31.236113 76.859680 44.157875 -1.613581 -0.417348 17.604826 7.016406 0.090994 -60.170662 -31.247221 -76.885292 44.176720 1.593980 0.381993 17.597586 -7.009474 -0.092517 
19.995884 6.189011 0.211598 -25.001125 0.000000 0.000000 -19.352932 0.000000 0.000000 20.532501 -0.119118 -0.638014 13.593909 0.000000 0.000000 0.996704 0.000000 0.000000 -7.211964 -10.965573 0.570902 -53.306755 -41.619770 -16.510729 -14.119022 4.004521 33.691162 -52.413166 0.942479 9.182197 7.666003 11.199484 0.430623 52.772106 41.217457 -16.812195 14.510308 -4.127153 33.674973 52.608616 -1.181601 9.119183 -60.173412 31.236118 76.859695 43.831051 -1.652320 -0.407753 17.604826 7.016406 0.090994 -60.170662 -31.247221 -76.885292 43.851967 1.633050 0.371410 17.597584 -7.009474 -0.092517 
19.995884 6.189011 0.158698 -25.001125 0.000000 0.000000 -20.130508 0.000000 0.000000 22.475094 -0.119080 -0.637911 13.278289 0.000000 0.000000 0.418901 0.000000 0.000000 -7.948601 -10.711173 -0.442252 -52.829014 -41.647430 -16.883039 -13.683282 3.962354 33.681911 -52.177094 0.462029 9.040541 8.420399 10.954192 -0.569929 52.289043 41.242378 -17.190500 14.066195 -4.080415 33.665985 52.357353 -0.682929 8.966125 -60.173428 31.236118 76.859680 43.504257 -1.691000 -0.397938 17.604826 7.016407 0.090994 -60.170670 -31.247225 -76.885292 43.527237 1.672055 0.360605 17.597584 -7.009474 -0.092517 
19.995884 6.189011 0.105799 -25.001125 0.000000 0.000000 -20.907642 0.000000 0.000000 24.410961 -0.119046 -0.637807 12.962561 0.000000 0.000000 -0.159589 0.000000 0.000000 -8.679020 -10.444380 -1.449890 -52.350933 -41.672787 -17.255760 -13.247644 3.920123 33.672970 -51.939926 -0.017698 8.896956 9.168773 10.696362 -1.565050 51.805645 41.264885 -17.569157 13.622194 -4.033617 33.657360 52.104839 -0.185086 8.810939 -60.173412 31.236115 76.859680 43.177467 -1.729619 -0.387903 17.604826 7.016406 0.090994 -60.170662 -31.247221 -76.885292 43.202511 1.710995 0.349581 17.597584 -7.009473 -0.092516 
19.995884 6.189011 0.052899 -25.001125 0.000000 0.000000 -21.684282 0.000000 0.000000 26.339027 -0.119015 -0.637703 12.646721 0.000000 0.000000 -0.738735 0.000000 0.000000 -9.402884 -10.165442 -2.451673 -51.872501 -41.695797 -17.628828 -12.812130 3.877836 33.664375 -51.701603 -0.496668 8.751425 9.910778 10.426228 -2.554393 51.321987 41.285004 -17.948133 13.178325 -3.986765 33.649113 51.851089 0.311886 8.653617 -60.173412 31.236113 76.859680 42.850712 -1.768176 -0.377650 17.604824 7.016406 0.090994 -60.170662 -31.247221 -76.885292 42.877831 1.749868 0.338337 17.597584 -7.009474 -0.092517 
19.995884 6.189011 0.000000 -25.001123 0.000000 0.000000 -22.460344 0.000000 0.000000 28.258253 -0.118988 -0.637599 12.330784 0.000000 0.000000 -1.318513 0.000000 0.000000 -10.119875 -9.874613 -3.447282 -51.393795 -41.716476 -18.002211 -12.376740 3.835494 33.656097 -51.462135 -0.974848 8.603945 10.646091 10.144040 -3.537632 50.838093 41.302696 -18.327362 12.734591 -3.939860 33.641224 51.596043 0.807952 8.494147 -60.173412 31.236113 76.859680 42.523975 -1.806669 -0.367177 17.604826 7.016406 0.090994 -60.170662 -31.247221 -76.885292 42.553162 1.788671 0.326874 17.597584 -7.009474 -0.092517 
